<svg width="554" height="554" viewBox="0 0 554 554" fill="none" xmlns="http://www.w3.org/2000/svg">
<path d="M492.05 100.249L457.187 39.8643C455.401 36.7702 452.099 34.8643 448.527 34.8643L180.258 34.8642C176.685 34.8642 173.384 36.7702 171.598 39.8642L37.4635 272.192C35.6772 275.286 35.6772 279.098 37.4635 282.192L171.598 514.519C173.384 517.613 176.685 519.519 180.258 519.519L448.527 519.519C452.099 519.519 455.401 517.613 457.187 514.519L491.67 454.792" stroke="#9D42BD" stroke-width="41"/>
<path d="M369.787 436.27C352.439 442.31 333.799 445.593 314.393 445.593C221.387 445.593 145.992 370.197 145.992 277.192C145.992 184.186 221.387 108.791 314.393 108.791C333.642 108.791 352.137 112.02 369.365 117.967" stroke="#9D42BD" stroke-width="41" stroke-linecap="square"/>
<line x1="170.219" y1="517.974" x2="220.219" y2="431.372" stroke="#9D42BD" stroke-width="41"/>
<line x1="180.334" y1="32.4139" x2="230.334" y2="119.016" stroke="#9D42BD" stroke-width="41"/>
<path d="M147.868 276.266H589.728" stroke="#9D42BD" stroke-width="41" stroke-linecap="round" stroke-dasharray="90 90"/>
<path d="M202.958 402.789L588.156 463.799" stroke="#9D42BD" stroke-width="41" stroke-linecap="round"/>
<path d="M202.958 152.045L588.156 91.0357" stroke="#9D42BD" stroke-width="41" stroke-linecap="round"/>
<!-- <path d="M872.301 424.255C827.568 424.255 792.551 411.605 767.251 386.305C742.318 360.639 729.851 324.705 729.851 278.505C729.851 253.572 734.435 230.105 743.601 208.105C752.768 185.739 767.068 167.589 786.501 153.655C805.935 139.722 830.868 132.755 861.301 132.755C889.535 132.755 913.368 139.355 932.801 152.555C952.235 165.389 966.901 182.255 976.801 203.155C987.068 224.055 992.201 246.789 992.201 271.355C992.201 278.322 989.818 284.189 985.051 288.955C980.651 293.722 974.601 296.105 966.901 296.105H780.451C783.385 320.672 792.735 340.472 808.501 355.505C824.268 370.172 847.001 377.505 876.701 377.505C893.201 377.505 907.135 376.039 918.501 373.105C929.868 369.805 940.685 365.589 950.951 360.455C953.885 358.989 957.185 358.255 960.851 358.255C966.718 358.255 971.851 360.272 976.251 364.305C980.651 368.339 982.851 373.472 982.851 379.705C982.851 384.105 981.385 388.139 978.451 391.805C975.885 395.105 972.585 397.855 968.551 400.055C956.451 407.022 943.251 412.889 928.951 417.655C915.018 422.055 896.135 424.255 872.301 424.255ZM780.451 255.405H942.701C941.601 236.339 936.651 220.939 927.851 209.205C919.418 197.472 909.151 188.855 897.051 183.355C884.951 177.855 873.035 175.105 861.301 175.105C849.568 175.105 837.651 177.855 825.551 183.355C813.451 188.855 803.185 197.472 794.751 209.205C786.318 220.939 781.551 236.339 780.451 255.405ZM1118.44 548.005C1111.84 548.005 1106.16 545.622 1101.39 540.855C1096.99 536.089 1094.79 530.405 1094.79 523.805C1094.79 520.505 1095.34 517.572 1096.44 515.005L1132.19 423.155L1028.79 171.255C1028.42 169.789 1027.87 168.139 1027.14 166.305C1026.77 164.472 1026.59 162.639 1026.59 160.805C1026.59 153.839 1028.97 147.972 1033.74 143.205C1038.51 138.072 1044.37 135.505 1051.34 135.505C1056.47 135.505 1061.06 136.972 1065.09 139.905C1069.49 142.839 1072.61 146.505 1074.44 150.905L1159.14 361.005L1245.49 152.005C1247.69 146.872 1250.62 142.839 1254.29 139.905C1258.32 136.972 1263.09 135.505 1268.59 135.505C1275.56 135.505 1281.42 138.072 1286.19 143.205C1290.96 147.972 1293.34 153.839 1293.34 160.805C1293.34 164.105 1292.79 167.222 1291.69 170.155L1141.54 530.955C1139.34 535.722 1136.41 539.755 1132.74 543.055C1129.07 546.355 1124.31 548.005 1118.44 548.005ZM1472.79 424.255C1428.06 424.255 1393.04 411.605 1367.74 386.305C1342.81 360.639 1330.34 324.705 1330.34 278.505C1330.34 253.572 1334.92 230.105 1344.09 208.105C1353.26 185.739 1367.56 167.589 1386.99 153.655C1406.42 139.722 1431.36 132.755 1461.79 132.755C1490.02 132.755 1513.86 139.355 1533.29 152.555C1552.72 165.389 1567.39 182.255 1577.29 203.155C1587.56 224.055 1592.69 246.789 1592.69 271.355C1592.69 278.322 1590.31 284.189 1585.54 288.955C1581.14 293.722 1575.09 296.105 1567.39 296.105H1380.94C1383.87 320.672 1393.22 340.472 1408.99 355.505C1424.76 370.172 1447.49 377.505 1477.19 377.505C1493.69 377.505 1507.62 376.039 1518.99 373.105C1530.36 369.805 1541.17 365.589 1551.44 360.455C1554.37 358.989 1557.67 358.255 1561.34 358.255C1567.21 358.255 1572.34 360.272 1576.74 364.305C1581.14 368.339 1583.34 373.472 1583.34 379.705C1583.34 384.105 1581.87 388.139 1578.94 391.805C1576.37 395.105 1573.07 397.855 1569.04 400.055C1556.94 407.022 1543.74 412.889 1529.44 417.655C1515.51 422.055 1496.62 424.255 1472.79 424.255ZM1380.94 255.405H1543.19C1542.09 236.339 1537.14 220.939 1528.34 209.205C1519.91 197.472 1509.64 188.855 1497.54 183.355C1485.44 177.855 1473.52 175.105 1461.79 175.105C1450.06 175.105 1438.14 177.855 1426.04 183.355C1413.94 188.855 1403.67 197.472 1395.24 209.205C1386.81 220.939 1382.04 236.339 1380.94 255.405ZM1789.81 550.755C1767.45 550.755 1745.45 547.822 1723.81 541.955C1702.18 536.089 1684.95 529.489 1672.11 522.155C1669.55 520.322 1667.16 517.939 1664.96 515.005C1663.13 512.072 1662.21 508.039 1662.21 502.905C1662.21 497.405 1664.23 492.272 1668.26 487.505C1672.66 482.739 1677.98 480.355 1684.21 480.355C1686.05 480.355 1687.7 480.539 1689.16 480.905C1691 481.272 1692.65 481.822 1694.11 482.555C1705.85 488.422 1719.23 493.372 1734.26 497.405C1749.3 501.439 1766.16 503.455 1784.86 503.455C1840.96 503.455 1869.01 473.572 1869.01 413.805V376.955C1857.65 389.055 1844.26 399.139 1828.86 407.205C1813.46 414.905 1795.5 418.755 1774.96 418.755C1759.56 418.755 1743.98 415.822 1728.21 409.955C1712.81 404.089 1698.51 395.289 1685.31 383.555C1672.48 371.822 1662.03 356.972 1653.96 339.005C1645.9 321.039 1641.86 299.955 1641.86 275.755C1641.86 251.555 1645.9 230.472 1653.96 212.505C1662.03 194.539 1672.48 179.689 1685.31 167.955C1698.51 156.222 1712.81 147.422 1728.21 141.555C1743.98 135.689 1759.56 132.755 1774.96 132.755C1795.5 132.755 1813.46 136.789 1828.86 144.855C1844.26 152.555 1857.65 162.455 1869.01 174.555V160.805C1869.01 153.839 1871.4 147.972 1876.16 143.205C1880.93 138.072 1886.8 135.505 1893.76 135.505C1900.73 135.505 1906.6 138.072 1911.36 143.205C1916.5 147.972 1919.06 153.839 1919.06 160.805V406.655C1919.06 452.855 1907.88 488.422 1885.51 513.355C1863.15 538.289 1831.25 550.755 1789.81 550.755ZM1785.41 373.105C1804.48 373.105 1820.61 368.889 1833.81 360.455C1847.01 352.022 1858.75 342.672 1869.01 332.405V219.105C1858.75 208.472 1847.01 199.122 1833.81 191.055C1820.61 182.622 1804.48 178.405 1785.41 178.405C1768.18 178.405 1752.41 181.889 1738.11 188.855C1723.81 195.822 1712.45 206.639 1704.01 221.305C1695.95 235.605 1691.91 253.755 1691.91 275.755C1691.91 297.755 1695.95 316.089 1704.01 330.755C1712.45 345.055 1723.81 355.689 1738.11 362.655C1752.41 369.622 1768.18 373.105 1785.41 373.105ZM2089.49 421.505C2082.15 421.505 2075.55 419.305 2069.69 414.905C2063.82 410.139 2059.79 404.639 2057.59 398.405L1979.49 169.605C1978.39 166.305 1977.84 163.189 1977.84 160.255C1977.84 153.289 1980.22 147.422 1984.99 142.655C1989.75 137.889 1995.62 135.505 2002.59 135.505C2007.72 135.505 2012.3 136.789 2016.34 139.355C2020.74 141.922 2023.67 145.589 2025.14 150.355L2089.49 362.105L2153.29 155.305C2155.12 149.439 2158.42 144.672 2163.19 141.005C2168.32 137.339 2174 135.505 2180.24 135.505C2186.47 135.505 2192.15 137.339 2197.29 141.005C2202.42 144.672 2205.72 149.439 2207.19 155.305L2270.99 362.105L2335.34 150.355C2336.8 145.589 2339.74 141.922 2344.14 139.355C2348.54 136.789 2353.12 135.505 2357.89 135.505C2364.85 135.505 2370.72 137.889 2375.49 142.655C2380.25 147.422 2382.64 153.289 2382.64 160.255C2382.64 163.189 2382.09 166.305 2380.99 169.605L2302.89 398.405C2300.69 404.639 2296.65 410.139 2290.79 414.905C2284.92 419.305 2278.32 421.505 2270.99 421.505C2263.65 421.505 2257.05 419.305 2251.19 414.905C2245.32 410.139 2241.1 404.455 2238.54 397.855L2180.24 215.805L2121.94 397.855C2119.37 404.455 2115.15 410.139 2109.29 414.905C2103.42 419.305 2096.82 421.505 2089.49 421.505ZM2509.76 424.255C2493.99 424.255 2479.14 420.955 2465.21 414.355C2451.64 407.755 2440.64 398.405 2432.21 386.305C2424.14 373.839 2420.11 358.989 2420.11 341.755C2420.11 315.722 2430.38 294.455 2450.91 277.955C2471.81 261.089 2503.71 252.655 2546.61 252.655H2613.16V248.255C2613.16 223.689 2607.11 206.272 2595.01 196.005C2582.91 185.372 2564.39 180.055 2539.46 180.055C2524.06 180.055 2510.49 181.522 2498.76 184.455C2487.39 187.022 2476.58 189.955 2466.31 193.255C2463.38 193.989 2460.99 194.355 2459.16 194.355C2453.66 194.355 2448.89 192.339 2444.86 188.305C2440.83 184.272 2438.81 179.322 2438.81 173.455C2438.81 163.555 2443.58 156.589 2453.11 152.555C2465.94 147.055 2480.06 142.472 2495.46 138.805C2511.23 134.772 2528.83 132.755 2548.26 132.755C2575.03 132.755 2596.84 138.072 2613.71 148.705C2630.58 159.339 2643.04 172.905 2651.11 189.405C2659.18 205.905 2663.21 223.139 2663.21 241.105V396.755C2663.21 403.722 2660.64 409.589 2655.51 414.355C2650.74 419.122 2644.88 421.505 2637.91 421.505C2630.94 421.505 2625.08 419.122 2620.31 414.355C2615.54 409.589 2613.16 403.722 2613.16 396.755V382.455C2603.26 392.722 2590.06 402.255 2573.56 411.055C2557.06 419.855 2535.79 424.255 2509.76 424.255ZM2528.46 380.255C2545.69 380.255 2561.83 376.039 2576.86 367.605C2591.89 359.172 2603.99 349.639 2613.16 339.005V292.805H2553.21C2527.54 292.805 2507.19 296.105 2492.16 302.705C2477.49 309.305 2470.16 320.489 2470.16 336.255C2470.16 347.989 2474.19 358.255 2482.26 367.055C2490.69 375.855 2506.09 380.255 2528.46 380.255ZM2804.96 548.005C2798.36 548.005 2792.68 545.622 2787.91 540.855C2783.51 536.089 2781.31 530.405 2781.31 523.805C2781.31 520.505 2781.86 517.572 2782.96 515.005L2818.71 423.155L2715.31 171.255C2714.95 169.789 2714.4 168.139 2713.66 166.305C2713.3 164.472 2713.11 162.639 2713.11 160.805C2713.11 153.839 2715.5 147.972 2720.26 143.205C2725.03 138.072 2730.9 135.505 2737.86 135.505C2743 135.505 2747.58 136.972 2751.61 139.905C2756.01 142.839 2759.13 146.505 2760.96 150.905L2845.66 361.005L2932.01 152.005C2934.21 146.872 2937.15 142.839 2940.81 139.905C2944.85 136.972 2949.61 135.505 2955.11 135.505C2962.08 135.505 2967.95 138.072 2972.71 143.205C2977.48 147.972 2979.86 153.839 2979.86 160.805C2979.86 164.105 2979.31 167.222 2978.21 170.155L2828.06 530.955C2825.86 535.722 2822.93 539.755 2819.26 543.055C2815.6 546.355 2810.83 548.005 2804.96 548.005Z" fill="#9D42BD"/> -->
</svg>
