<svg width="554" height="554" viewBox="0 0 554 554" fill="none" xmlns="http://www.w3.org/2000/svg">
<path d="M492.05 100.249L457.187 39.8643C455.401 36.7702 452.099 34.8643 448.527 34.8643L180.258 34.8642C176.685 34.8642 173.384 36.7702 171.598 39.8642L37.4635 272.192C35.6772 275.286 35.6772 279.098 37.4635 282.192L171.598 514.519C173.384 517.613 176.685 519.519 180.258 519.519L448.527 519.519C452.099 519.519 455.401 517.613 457.187 514.519L491.67 454.792" stroke="#9D42BD" stroke-width="41"/>
<path d="M369.787 436.27C352.439 442.31 333.799 445.593 314.393 445.593C221.387 445.593 145.992 370.197 145.992 277.192C145.992 184.186 221.387 108.791 314.393 108.791C333.642 108.791 352.137 112.02 369.365 117.967" stroke="#9D42BD" stroke-width="41" stroke-linecap="square"/>
<line x1="170.219" y1="517.974" x2="220.219" y2="431.372" stroke="#9D42BD" stroke-width="41"/>
<line x1="180.334" y1="32.4139" x2="230.334" y2="119.016" stroke="#9D42BD" stroke-width="41"/>
<path d="M147.868 276.266H589.728" stroke="#9D42BD" stroke-width="41" stroke-linecap="round" stroke-dasharray="90 90"/>
<path d="M202.958 402.789L588.156 463.799" stroke="#9D42BD" stroke-width="41" stroke-linecap="round"/>
<path d="M202.958 152.045L588.156 91.0357" stroke="#9D42BD" stroke-width="41" stroke-linecap="round"/>
</svg>
