<svg width="281" height="49" viewBox="0 0 281 49" fill="none" xmlns="http://www.w3.org/2000/svg">
<path d="M69.9422 22.9966C40.9665 22.9966 25.1043 41.4449 19.8141 47.6323L31.1638 47.791C37.7302 36.5275 56.6336 24.6257 65.6606 23.9836C69.0839 23.0804 69.9422 22.9966 69.9422 22.9966Z" fill="#666666"/>
<path d="M33.6638 47.7254H45.8311C52.9718 33.1724 59.5243 26.6361 66.1119 25.5888L65.4922 25.0039C54.0263 26.654 37.1508 40.4696 33.6638 47.7254Z" fill="#666666"/>
<g clip-path="url(#clip0_1_3)">
<path d="M246.492 13.528L247.932 27.64L255.516 13.528H260.604L249.036 34.168C247.884 36.184 246.716 37.736 245.532 38.824C244.348 39.912 243.052 40.712 241.644 41.224C240.268 41.736 238.732 42.024 237.036 42.088C235.372 42.184 233.468 42.232 231.324 42.232L232.044 38.92C233.1 38.92 234.076 38.904 234.972 38.872C235.9 38.84 236.636 38.744 237.18 38.584C237.916 38.392 238.444 38.04 238.764 37.528C239.084 37.048 239.244 36.328 239.244 35.368C239.244 34.728 239.18 33.992 239.052 33.16C238.956 32.328 238.844 31.448 238.716 30.52L236.364 13.528H246.492Z" fill="#666666"/>
<path d="M212.353 15.304C213.985 14.504 215.649 13.928 217.345 13.576C219.073 13.192 220.993 13 223.105 13C225.153 13 226.849 13.16 228.193 13.48C229.537 13.8 230.609 14.264 231.409 14.872C232.209 15.48 232.769 16.2 233.089 17.032C233.409 17.864 233.569 18.808 233.569 19.864C233.569 20.472 233.521 21.128 233.425 21.832C233.361 22.536 233.281 23.128 233.185 23.608L230.929 34.168H223.201L222.337 31.096H222.049C221.025 32.216 219.825 33.08 218.449 33.688C217.105 34.264 215.761 34.552 214.417 34.552C213.649 34.552 212.897 34.44 212.161 34.216C211.425 33.992 210.769 33.656 210.193 33.208C209.617 32.728 209.153 32.136 208.801 31.432C208.449 30.696 208.273 29.816 208.273 28.792C208.273 27.128 208.721 25.816 209.617 24.856C210.545 23.864 211.745 23.128 213.217 22.648C214.721 22.136 216.401 21.816 218.257 21.688C220.145 21.56 222.033 21.496 223.921 21.496C223.985 21.176 224.065 20.728 224.161 20.152C224.257 19.544 224.305 19.016 224.305 18.568C224.305 17.992 224.145 17.464 223.825 16.984C223.537 16.472 222.913 16.216 221.953 16.216C220.833 16.216 220.001 16.552 219.457 17.224C218.945 17.864 218.609 18.648 218.449 19.576H211.441L212.353 15.304ZM223.393 23.752H222.529C221.601 23.752 220.801 23.88 220.129 24.136C219.489 24.36 218.961 24.664 218.545 25.048C218.161 25.432 217.873 25.864 217.681 26.344C217.489 26.824 217.393 27.304 217.393 27.784C217.393 28.552 217.585 29.128 217.969 29.512C218.385 29.896 218.865 30.088 219.409 30.088C220.081 30.088 220.737 29.848 221.377 29.368C222.049 28.888 222.465 28.248 222.625 27.448L223.393 23.752Z" fill="#666666"/>
<path d="M170.638 13.528H180.814L182.494 27.64L188.302 13.528H197.47L199.102 27.64L204.91 13.528H209.998L200.446 34.168H190.414L188.638 23.704L183.79 34.168H173.758L170.638 13.528Z" fill="#666666"/>
<path d="M160.84 13.528H168.616L164.68 32.2C164.392 33.64 163.912 34.968 163.24 36.184C162.568 37.4 161.624 38.456 160.408 39.352C159.224 40.248 157.72 40.952 155.896 41.464C154.104 41.976 151.912 42.232 149.32 42.232C148.84 42.232 148.264 42.216 147.592 42.184C146.92 42.184 146.232 42.168 145.528 42.136C144.824 42.136 144.152 42.12 143.512 42.088C142.872 42.056 142.36 42.024 141.976 41.992L142.888 38.536C143.912 38.696 144.952 38.776 146.008 38.776C147.096 38.808 148.024 38.824 148.792 38.824C149.752 38.824 150.552 38.728 151.192 38.536C151.864 38.376 152.408 38.104 152.824 37.72C153.272 37.336 153.624 36.824 153.88 36.184C154.168 35.544 154.392 34.76 154.552 33.832L155.128 30.712H154.792C154.6 31 154.312 31.352 153.928 31.768C153.576 32.152 153.112 32.536 152.536 32.92C151.96 33.272 151.272 33.576 150.472 33.832C149.704 34.056 148.824 34.168 147.832 34.168C146.712 34.168 145.752 34.008 144.952 33.688C144.184 33.336 143.56 32.872 143.08 32.296C142.6 31.688 142.248 30.984 142.024 30.184C141.8 29.352 141.688 28.456 141.688 27.496C141.688 27.08 141.72 26.44 141.784 25.576C141.848 24.712 141.992 23.736 142.216 22.648C142.472 21.56 142.824 20.456 143.272 19.336C143.752 18.184 144.376 17.144 145.144 16.216C145.944 15.288 146.92 14.52 148.072 13.912C149.256 13.304 150.68 13 152.344 13C152.856 13 153.416 13.048 154.024 13.144C154.632 13.24 155.224 13.416 155.8 13.672C156.376 13.928 156.888 14.296 157.336 14.776C157.784 15.256 158.136 15.88 158.392 16.648H158.68L160.84 13.528ZM155.464 17.704C154.696 17.704 154.056 18.12 153.544 18.952C153.032 19.752 152.616 20.696 152.296 21.784C151.976 22.872 151.736 23.96 151.576 25.048C151.448 26.104 151.384 26.888 151.384 27.4C151.384 28.04 151.48 28.584 151.672 29.032C151.896 29.448 152.28 29.656 152.824 29.656C153.144 29.656 153.448 29.576 153.736 29.416C154.056 29.256 154.344 29.08 154.6 28.888C154.888 28.664 155.128 28.44 155.32 28.216C155.544 27.992 155.704 27.816 155.8 27.688L157.576 19.288C157.32 18.936 157.016 18.584 156.664 18.232C156.344 17.88 155.944 17.704 155.464 17.704Z" fill="#666666"/>
<path d="M125.47 24.52C125.342 25.224 125.246 25.896 125.182 26.536C125.15 27.176 125.134 27.752 125.134 28.264C125.134 28.552 125.15 28.872 125.182 29.224C125.214 29.576 125.278 29.912 125.374 30.232C125.502 30.52 125.662 30.776 125.854 31C126.078 31.192 126.382 31.288 126.766 31.288C127.054 31.288 127.374 31.192 127.726 31C128.11 30.808 128.478 30.536 128.83 30.184C129.214 29.832 129.566 29.4 129.886 28.888C130.238 28.376 130.51 27.8 130.702 27.16H138.574L137.326 32.296C136.686 32.712 135.95 33.064 135.118 33.352C134.286 33.64 133.406 33.88 132.478 34.072C131.55 34.232 130.606 34.344 129.646 34.408C128.686 34.504 127.774 34.552 126.91 34.552C125.31 34.552 123.822 34.408 122.446 34.12C121.07 33.832 119.87 33.336 118.846 32.632C117.822 31.928 117.006 31 116.398 29.848C115.822 28.664 115.534 27.208 115.534 25.48C115.534 23.912 115.774 22.376 116.254 20.872C116.766 19.368 117.598 18.04 118.75 16.888C119.934 15.704 121.502 14.76 123.454 14.056C125.438 13.352 127.902 13 130.846 13C134.046 13 136.446 13.496 138.046 14.488C139.678 15.48 140.494 17.032 140.494 19.144C140.494 20.008 140.366 20.952 140.11 21.976C139.854 22.968 139.47 23.816 138.958 24.52H125.47ZM131.854 18.808C131.854 17.816 131.694 17.144 131.374 16.792C131.054 16.44 130.67 16.264 130.222 16.264C129.71 16.264 129.23 16.44 128.782 16.792C128.366 17.112 127.982 17.56 127.63 18.136C127.278 18.68 126.958 19.32 126.67 20.056C126.382 20.76 126.142 21.512 125.95 22.312H131.422C131.486 21.928 131.55 21.528 131.614 21.112C131.678 20.76 131.726 20.376 131.758 19.96C131.822 19.544 131.854 19.16 131.854 18.808Z" fill="#666666"/>
<path d="M102.914 13.528L104.354 27.64L111.938 13.528H117.026L105.458 34.168C104.306 36.184 103.138 37.736 101.954 38.824C100.77 39.912 99.4738 40.712 98.0658 41.224C96.6898 41.736 95.1538 42.024 93.4578 42.088C91.7938 42.184 89.8898 42.232 87.7458 42.232L88.4658 38.92C89.5218 38.92 90.4978 38.904 91.3938 38.872C92.3218 38.84 93.0578 38.744 93.6018 38.584C94.3378 38.392 94.8658 38.04 95.1858 37.528C95.5058 37.048 95.6658 36.328 95.6658 35.368C95.6658 34.728 95.6018 33.992 95.4738 33.16C95.3778 32.328 95.2658 31.448 95.1378 30.52L92.7858 13.528H102.914Z" fill="#666666"/>
<path d="M75.4079 24.52C75.2799 25.224 75.1839 25.896 75.1199 26.536C75.0879 27.176 75.0719 27.752 75.0719 28.264C75.0719 28.552 75.0879 28.872 75.1199 29.224C75.1519 29.576 75.2159 29.912 75.3119 30.232C75.4399 30.52 75.5999 30.776 75.7919 31C76.0159 31.192 76.3199 31.288 76.7039 31.288C76.9919 31.288 77.3119 31.192 77.6639 31C78.0479 30.808 78.4159 30.536 78.7679 30.184C79.1519 29.832 79.5039 29.4 79.8239 28.888C80.1759 28.376 80.4479 27.8 80.6399 27.16H88.5119L87.2639 32.296C86.6239 32.712 85.8879 33.064 85.0559 33.352C84.2239 33.64 83.3439 33.88 82.4159 34.072C81.4879 34.232 80.5439 34.344 79.5839 34.408C78.6239 34.504 77.7119 34.552 76.8479 34.552C75.2479 34.552 73.7599 34.408 72.3839 34.12C71.0079 33.832 69.8079 33.336 68.7839 32.632C67.7599 31.928 66.9439 31 66.3359 29.848C65.7599 28.664 65.4719 27.208 65.4719 25.48C65.4719 23.912 65.7119 22.376 66.1919 20.872C66.7039 19.368 67.5359 18.04 68.6879 16.888C69.8719 15.704 71.4399 14.76 73.3919 14.056C75.3759 13.352 77.8399 13 80.7839 13C83.9839 13 86.3839 13.496 87.9839 14.488C89.6159 15.48 90.4319 17.032 90.4319 19.144C90.4319 20.008 90.3039 20.952 90.0479 21.976C89.7919 22.968 89.4079 23.816 88.8959 24.52H75.4079ZM81.7919 18.808C81.7919 17.816 81.6319 17.144 81.3119 16.792C80.9919 16.44 80.6079 16.264 80.1599 16.264C79.6479 16.264 79.1679 16.44 78.7199 16.792C78.3039 17.112 77.9199 17.56 77.5679 18.136C77.2159 18.68 76.8959 19.32 76.6079 20.056C76.3199 20.76 76.0799 21.512 75.8879 22.312H81.3599C81.4239 21.928 81.4879 21.528 81.5519 21.112C81.6159 20.76 81.6639 20.376 81.6959 19.96C81.7599 19.544 81.7919 19.16 81.7919 18.808Z" fill="#666666"/>
</g>
<g clip-path="url(#clip1_1_3)">
<path d="M246.492 13.296L247.932 27.408L255.516 13.296H260.604L249.036 33.936C247.884 35.952 246.716 37.504 245.532 38.592C244.348 39.68 243.052 40.48 241.644 40.992C240.268 41.504 238.732 41.792 237.036 41.856C235.372 41.952 233.468 42 231.324 42L232.044 38.688C233.1 38.688 234.076 38.672 234.972 38.64C235.9 38.608 236.636 38.512 237.18 38.352C237.916 38.16 238.444 37.808 238.764 37.296C239.084 36.816 239.244 36.096 239.244 35.136C239.244 34.496 239.18 33.76 239.052 32.928C238.956 32.096 238.844 31.216 238.716 30.288L236.364 13.296H246.492Z" fill="#666666"/>
<path d="M212.353 15.072C213.985 14.272 215.649 13.696 217.345 13.344C219.073 12.96 220.993 12.768 223.105 12.768C225.153 12.768 226.849 12.928 228.193 13.248C229.537 13.568 230.609 14.032 231.409 14.64C232.209 15.248 232.769 15.968 233.089 16.8C233.409 17.632 233.569 18.576 233.569 19.632C233.569 20.24 233.521 20.896 233.425 21.6C233.361 22.304 233.281 22.896 233.185 23.376L230.929 33.936H223.201L222.337 30.864H222.049C221.025 31.984 219.825 32.848 218.449 33.456C217.105 34.032 215.761 34.32 214.417 34.32C213.649 34.32 212.897 34.208 212.161 33.984C211.425 33.76 210.769 33.424 210.193 32.976C209.617 32.496 209.153 31.904 208.801 31.2C208.449 30.464 208.273 29.584 208.273 28.56C208.273 26.896 208.721 25.584 209.617 24.624C210.545 23.632 211.745 22.896 213.217 22.416C214.721 21.904 216.401 21.584 218.257 21.456C220.145 21.328 222.033 21.264 223.921 21.264C223.985 20.944 224.065 20.496 224.161 19.92C224.257 19.312 224.305 18.784 224.305 18.336C224.305 17.76 224.145 17.232 223.825 16.752C223.537 16.24 222.913 15.984 221.953 15.984C220.833 15.984 220.001 16.32 219.457 16.992C218.945 17.632 218.609 18.416 218.449 19.344H211.441L212.353 15.072ZM223.393 23.52H222.529C221.601 23.52 220.801 23.648 220.129 23.904C219.489 24.128 218.961 24.432 218.545 24.816C218.161 25.2 217.873 25.632 217.681 26.112C217.489 26.592 217.393 27.072 217.393 27.552C217.393 28.32 217.585 28.896 217.969 29.28C218.385 29.664 218.865 29.856 219.409 29.856C220.081 29.856 220.737 29.616 221.377 29.136C222.049 28.656 222.465 28.016 222.625 27.216L223.393 23.52Z" fill="#666666"/>
<path d="M170.638 13.296H180.814L182.494 27.408L188.302 13.296H197.47L199.102 27.408L204.91 13.296H209.998L200.446 33.936H190.414L188.638 23.472L183.79 33.936H173.758L170.638 13.296Z" fill="#666666"/>
<path d="M160.84 13.296H168.616L164.68 31.968C164.392 33.408 163.912 34.736 163.24 35.952C162.568 37.168 161.624 38.224 160.408 39.12C159.224 40.016 157.72 40.72 155.896 41.232C154.104 41.744 151.912 42 149.32 42C148.84 42 148.264 41.984 147.592 41.952C146.92 41.952 146.232 41.936 145.528 41.904C144.824 41.904 144.152 41.888 143.512 41.856C142.872 41.824 142.36 41.792 141.976 41.76L142.888 38.304C143.912 38.464 144.952 38.544 146.008 38.544C147.096 38.576 148.024 38.592 148.792 38.592C149.752 38.592 150.552 38.496 151.192 38.304C151.864 38.144 152.408 37.872 152.824 37.488C153.272 37.104 153.624 36.592 153.88 35.952C154.168 35.312 154.392 34.528 154.552 33.6L155.128 30.48H154.792C154.6 30.768 154.312 31.12 153.928 31.536C153.576 31.92 153.112 32.304 152.536 32.688C151.96 33.04 151.272 33.344 150.472 33.6C149.704 33.824 148.824 33.936 147.832 33.936C146.712 33.936 145.752 33.776 144.952 33.456C144.184 33.104 143.56 32.64 143.08 32.064C142.6 31.456 142.248 30.752 142.024 29.952C141.8 29.12 141.688 28.224 141.688 27.264C141.688 26.848 141.72 26.208 141.784 25.344C141.848 24.48 141.992 23.504 142.216 22.416C142.472 21.328 142.824 20.224 143.272 19.104C143.752 17.952 144.376 16.912 145.144 15.984C145.944 15.056 146.92 14.288 148.072 13.68C149.256 13.072 150.68 12.768 152.344 12.768C152.856 12.768 153.416 12.816 154.024 12.912C154.632 13.008 155.224 13.184 155.8 13.44C156.376 13.696 156.888 14.064 157.336 14.544C157.784 15.024 158.136 15.648 158.392 16.416H158.68L160.84 13.296ZM155.464 17.472C154.696 17.472 154.056 17.888 153.544 18.72C153.032 19.52 152.616 20.464 152.296 21.552C151.976 22.64 151.736 23.728 151.576 24.816C151.448 25.872 151.384 26.656 151.384 27.168C151.384 27.808 151.48 28.352 151.672 28.8C151.896 29.216 152.28 29.424 152.824 29.424C153.144 29.424 153.448 29.344 153.736 29.184C154.056 29.024 154.344 28.848 154.6 28.656C154.888 28.432 155.128 28.208 155.32 27.984C155.544 27.76 155.704 27.584 155.8 27.456L157.576 19.056C157.32 18.704 157.016 18.352 156.664 18C156.344 17.648 155.944 17.472 155.464 17.472Z" fill="#666666"/>
<path d="M125.47 24.288C125.342 24.992 125.246 25.664 125.182 26.304C125.15 26.944 125.134 27.52 125.134 28.032C125.134 28.32 125.15 28.64 125.182 28.992C125.214 29.344 125.278 29.68 125.374 30C125.502 30.288 125.662 30.544 125.854 30.768C126.078 30.96 126.382 31.056 126.766 31.056C127.054 31.056 127.374 30.96 127.726 30.768C128.11 30.576 128.478 30.304 128.83 29.952C129.214 29.6 129.566 29.168 129.886 28.656C130.238 28.144 130.51 27.568 130.702 26.928H138.574L137.326 32.064C136.686 32.48 135.95 32.832 135.118 33.12C134.286 33.408 133.406 33.648 132.478 33.84C131.55 34 130.606 34.112 129.646 34.176C128.686 34.272 127.774 34.32 126.91 34.32C125.31 34.32 123.822 34.176 122.446 33.888C121.07 33.6 119.87 33.104 118.846 32.4C117.822 31.696 117.006 30.768 116.398 29.616C115.822 28.432 115.534 26.976 115.534 25.248C115.534 23.68 115.774 22.144 116.254 20.64C116.766 19.136 117.598 17.808 118.75 16.656C119.934 15.472 121.502 14.528 123.454 13.824C125.438 13.12 127.902 12.768 130.846 12.768C134.046 12.768 136.446 13.264 138.046 14.256C139.678 15.248 140.494 16.8 140.494 18.912C140.494 19.776 140.366 20.72 140.11 21.744C139.854 22.736 139.47 23.584 138.958 24.288H125.47ZM131.854 18.576C131.854 17.584 131.694 16.912 131.374 16.56C131.054 16.208 130.67 16.032 130.222 16.032C129.71 16.032 129.23 16.208 128.782 16.56C128.366 16.88 127.982 17.328 127.63 17.904C127.278 18.448 126.958 19.088 126.67 19.824C126.382 20.528 126.142 21.28 125.95 22.08H131.422C131.486 21.696 131.55 21.296 131.614 20.88C131.678 20.528 131.726 20.144 131.758 19.728C131.822 19.312 131.854 18.928 131.854 18.576Z" fill="#666666"/>
<path d="M102.914 13.296L104.354 27.408L111.938 13.296H117.026L105.458 33.936C104.306 35.952 103.138 37.504 101.954 38.592C100.77 39.68 99.4738 40.48 98.0658 40.992C96.6898 41.504 95.1538 41.792 93.4578 41.856C91.7938 41.952 89.8898 42 87.7458 42L88.4658 38.688C89.5218 38.688 90.4978 38.672 91.3938 38.64C92.3218 38.608 93.0578 38.512 93.6018 38.352C94.3378 38.16 94.8658 37.808 95.1858 37.296C95.5058 36.816 95.6658 36.096 95.6658 35.136C95.6658 34.496 95.6018 33.76 95.4738 32.928C95.3778 32.096 95.2658 31.216 95.1378 30.288L92.7858 13.296H102.914Z" fill="#666666"/>
<path d="M75.4079 24.288C75.2799 24.992 75.1839 25.664 75.1199 26.304C75.0879 26.944 75.0719 27.52 75.0719 28.032C75.0719 28.32 75.0879 28.64 75.1199 28.992C75.1519 29.344 75.2159 29.68 75.3119 30C75.4399 30.288 75.5999 30.544 75.7919 30.768C76.0159 30.96 76.3199 31.056 76.7039 31.056C76.9919 31.056 77.3119 30.96 77.6639 30.768C78.0479 30.576 78.4159 30.304 78.7679 29.952C79.1519 29.6 79.5039 29.168 79.8239 28.656C80.1759 28.144 80.4479 27.568 80.6399 26.928H88.5119L87.2639 32.064C86.6239 32.48 85.8879 32.832 85.0559 33.12C84.2239 33.408 83.3439 33.648 82.4159 33.84C81.4879 34 80.5439 34.112 79.5839 34.176C78.6239 34.272 77.7119 34.32 76.8479 34.32C75.2479 34.32 73.7599 34.176 72.3839 33.888C71.0079 33.6 69.8079 33.104 68.7839 32.4C67.7599 31.696 66.9439 30.768 66.3359 29.616C65.7599 28.432 65.4719 26.976 65.4719 25.248C65.4719 23.68 65.7119 22.144 66.1919 20.64C66.7039 19.136 67.5359 17.808 68.6879 16.656C69.8719 15.472 71.4399 14.528 73.3919 13.824C75.3759 13.12 77.8399 12.768 80.7839 12.768C83.9839 12.768 86.3839 13.264 87.9839 14.256C89.6159 15.248 90.4319 16.8 90.4319 18.912C90.4319 19.776 90.3039 20.72 90.0479 21.744C89.7919 22.736 89.4079 23.584 88.8959 24.288H75.4079ZM81.7919 18.576C81.7919 17.584 81.6319 16.912 81.3119 16.56C80.9919 16.208 80.6079 16.032 80.1599 16.032C79.6479 16.032 79.1679 16.208 78.7199 16.56C78.3039 16.88 77.9199 17.328 77.5679 17.904C77.2159 18.448 76.8959 19.088 76.6079 19.824C76.3199 20.528 76.0799 21.28 75.8879 22.08H81.3599C81.4239 21.696 81.4879 21.296 81.5519 20.88C81.6159 20.528 81.6639 20.144 81.6959 19.728C81.7599 19.312 81.7919 18.928 81.7919 18.576Z" fill="#666666"/>
</g>
<path d="M59.4228 24.5957L46.3623 1.855H20.1106L7.07626 24.5957L20.1367 47.3364H45.8387M23.9057 44.4149L31.2604 31.2284C35.0293 32.4391 39.2432 29.8598 39.9499 26.0433H54.1053M44.5564 4.77655L55.1042 23.1481H39.9761C39.2432 19.358 35.0555 16.8049 31.3127 17.9893L23.9057 4.77655H44.5564ZM10.5573 24.5957L21.1837 6.09256L28.6692 19.4896C25.6855 21.9637 25.6593 27.2804 28.643 29.7545L21.1837 43.0989L10.5573 24.5957Z" stroke="#666666"/>
<defs>
<clipPath id="clip0_1_3">
<rect width="196" height="13" fill="white" transform="translate(65 11)"/>
</clipPath>
<clipPath id="clip1_1_3">
<rect width="196" height="24" fill="white" transform="translate(65 25)"/>
</clipPath>
</defs>
</svg>
